<svg width="426" height="91" viewBox="0 0 426 91" fill="none" xmlns="http://www.w3.org/2000/svg">
<path d="M90.645 67.6009C89.3919 67.6009 88.4252 67.1802 87.7449 66.3389C87.0826 65.4975 86.7514 64.2533 86.7514 62.6064V59.2498C86.7514 57.5491 87.181 56.2244 88.0403 55.2756C88.8996 54.3269 90.0901 53.8525 91.6117 53.8525C92.3099 53.8525 93.0438 53.9509 93.8136 54.1478C94.5834 54.3268 95.1652 54.5596 95.559 54.846L95.6933 56.8062C95.1204 56.5019 94.4939 56.2692 93.8136 56.1081C93.1333 55.9469 92.5336 55.8664 92.0145 55.8664C91.012 55.8664 90.2601 56.1707 89.7589 56.7794C89.2755 57.388 89.0339 58.301 89.0339 59.5183V62.7406C89.0339 63.6894 89.2129 64.4055 89.5709 64.8888C89.9468 65.3543 90.5018 65.587 91.2358 65.587C91.6833 65.587 92.1219 65.5064 92.5515 65.3453C92.9812 65.1663 93.4556 64.8799 93.9747 64.486C94.4939 64.0743 95.1025 63.5193 95.8007 62.8212L95.747 64.9157C95.1383 65.5243 94.5565 66.0345 94.0016 66.4463C93.4645 66.8401 92.9185 67.1265 92.3636 67.3055C91.8265 67.5025 91.2537 67.6009 90.645 67.6009ZM95.9349 67.2787C95.8454 67.2787 95.7738 67.2608 95.7201 67.225C95.6664 67.1713 95.6306 67.0907 95.6127 66.9833C95.5769 66.7148 95.5321 66.3747 95.4784 65.9629C95.4247 65.5512 95.4068 65.211 95.4247 64.9425L95.2905 63.7342V49.207C95.2905 49.028 95.38 48.9385 95.559 48.9385H97.3044C97.4834 48.9385 97.5729 49.028 97.5729 49.207V64.2444C97.5729 64.495 97.5819 64.7993 97.5998 65.1573C97.6177 65.4975 97.6356 65.8287 97.6535 66.1509C97.6893 66.4731 97.7251 66.7237 97.7609 66.9028C97.8146 67.1534 97.7251 67.2787 97.4924 67.2787H95.9349ZM106.621 67.6009C104.903 67.6009 103.578 67.1981 102.647 66.3926C101.734 65.587 101.278 64.3965 101.278 62.8212V59.0618C101.278 57.3612 101.734 56.0723 102.647 55.1951C103.56 54.3 104.885 53.8525 106.621 53.8525C108.358 53.8525 109.674 54.291 110.569 55.1682C111.482 56.0275 111.938 57.2806 111.938 58.9276V61.0221C111.938 61.2011 111.849 61.2906 111.67 61.2906H103.56V62.1499C103.56 63.3493 103.811 64.2265 104.312 64.7814C104.813 65.3185 105.628 65.587 106.756 65.587C107.597 65.587 108.241 65.4527 108.689 65.1842C109.154 64.8978 109.387 64.486 109.387 63.949C109.387 63.7521 109.486 63.6536 109.683 63.6536H111.428C111.571 63.6536 111.661 63.7342 111.696 63.8953C111.768 65.041 111.347 65.945 110.434 66.6074C109.521 67.2697 108.25 67.6009 106.621 67.6009ZM103.56 59.3304H109.656V59.1692C109.656 58.0414 109.405 57.209 108.904 56.672C108.403 56.1349 107.651 55.8664 106.648 55.8664C105.61 55.8664 104.831 56.1439 104.312 56.6988C103.811 57.2538 103.56 58.0862 103.56 59.1961V59.3304ZM124.439 67.2787C124.26 67.2787 124.171 67.1892 124.171 67.0102V58.4442C124.171 57.5491 123.983 56.8957 123.607 56.484C123.249 56.0723 122.703 55.8664 121.969 55.8664C121.271 55.8664 120.582 56.0723 119.901 56.484C119.221 56.8957 118.371 57.6029 117.35 58.6053L117.377 56.5377C117.986 55.8932 118.559 55.3741 119.096 54.9803C119.651 54.5864 120.197 54.3 120.734 54.121C121.289 53.942 121.871 53.8525 122.479 53.8525C123.768 53.8525 124.753 54.2284 125.433 54.9803C126.113 55.7321 126.453 56.851 126.453 58.3368V67.0102C126.453 67.1892 126.364 67.2787 126.185 67.2787H124.439ZM115.82 67.2787C115.641 67.2787 115.551 67.1892 115.551 67.0102V57.4507C115.551 56.9852 115.524 56.4661 115.471 55.8932C115.435 55.3025 115.399 54.846 115.363 54.5238C115.328 54.291 115.417 54.1747 115.632 54.1747H117.27C117.359 54.1747 117.422 54.1926 117.458 54.2284C117.512 54.2642 117.547 54.3358 117.565 54.4432C117.601 54.5864 117.637 54.8102 117.673 55.1145C117.708 55.4189 117.744 55.7411 117.78 56.0812C117.816 56.4034 117.834 56.6809 117.834 56.9136V57.6118V67.0102C117.834 67.1892 117.744 67.2787 117.565 67.2787H115.82ZM135.326 67.6009C134.413 67.6009 133.679 67.4488 133.124 67.1444C132.587 66.8222 132.193 66.3478 131.943 65.7212C131.71 65.0947 131.594 64.316 131.594 63.3851V56.1349H129.526C129.347 56.1349 129.258 56.0454 129.258 55.8664V54.4432C129.258 54.2642 129.347 54.1747 129.526 54.1747H131.647L131.943 50.9524C131.961 50.7734 132.059 50.6839 132.238 50.6839H133.581C133.76 50.6839 133.849 50.7734 133.849 50.9524L133.876 54.1747H137.877C138.056 54.1747 138.146 54.2642 138.146 54.4432V55.8664C138.146 56.0454 138.056 56.1349 137.877 56.1349H133.876V63.3314C133.876 64.1728 134.019 64.7635 134.306 65.1036C134.61 65.4438 135.12 65.6138 135.836 65.6138C136.194 65.6138 136.552 65.578 136.911 65.5064C137.269 65.4169 137.582 65.3095 137.85 65.1842C137.94 65.1484 138.011 65.1484 138.065 65.1842C138.137 65.22 138.173 65.2827 138.173 65.3722V66.849C138.173 66.9923 138.101 67.0907 137.958 67.1444C137.636 67.2697 137.26 67.3771 136.83 67.4667C136.4 67.5562 135.899 67.6009 135.326 67.6009ZM141.335 67.2787C141.156 67.2787 141.066 67.1892 141.066 67.0102V54.4432C141.066 54.2642 141.156 54.1747 141.335 54.1747H143.08C143.259 54.1747 143.349 54.2642 143.349 54.4432V67.0102C143.349 67.1892 143.259 67.2787 143.08 67.2787H141.335ZM142.221 51.9728C141.702 51.9728 141.326 51.8385 141.093 51.57C140.86 51.2836 140.744 50.9255 140.744 50.4959V50.2274C140.744 49.7977 140.86 49.4487 141.093 49.1801C141.326 48.8937 141.702 48.7505 142.221 48.7505C142.74 48.7505 143.116 48.8937 143.349 49.1801C143.582 49.4487 143.698 49.7977 143.698 50.2274V50.4959C143.698 50.9255 143.582 51.2836 143.349 51.57C143.116 51.8385 142.74 51.9728 142.221 51.9728ZM151.629 67.6009C150.018 67.6009 148.809 67.2518 148.004 66.5537C147.198 65.8376 146.795 64.7725 146.795 63.3582C146.795 63.1971 146.885 63.1166 147.064 63.1166H148.836C148.997 63.1166 149.078 63.1882 149.078 63.3314C149.078 64.1369 149.275 64.7188 149.669 65.0768C150.08 65.4348 150.743 65.6138 151.656 65.6138C152.533 65.6138 153.195 65.4706 153.643 65.1842C154.09 64.8799 154.314 64.4502 154.314 63.8953C154.314 63.4835 154.189 63.1434 153.938 62.8749C153.688 62.5885 153.294 62.3289 152.757 62.0962L149.695 60.8341C148.711 60.4224 148.013 59.9569 147.601 59.4378C147.189 58.9186 146.983 58.2473 146.983 57.4238C146.983 56.2423 147.359 55.3562 148.111 54.7654C148.863 54.1568 149.982 53.8525 151.468 53.8525C152.989 53.8525 154.171 54.1747 155.012 54.8191C155.854 55.4457 156.274 56.3408 156.274 57.5044C156.274 57.6655 156.185 57.7461 156.006 57.7461H154.234C154.162 57.7461 154.099 57.7192 154.046 57.6655C153.992 57.5939 153.965 57.4775 153.965 57.3164C153.965 56.851 153.75 56.4929 153.321 56.2423C152.891 55.9738 152.3 55.8395 151.548 55.8395C150.778 55.8395 150.206 55.9738 149.83 56.2423C149.454 56.4929 149.266 56.8868 149.266 57.4238C149.266 57.8177 149.364 58.113 149.561 58.31C149.776 58.5069 150.197 58.7396 150.823 59.0081L153.884 60.297C154.833 60.6909 155.522 61.1563 155.952 61.6934C156.382 62.2304 156.597 62.9196 156.597 63.761C156.597 64.9962 156.167 65.945 155.308 66.6074C154.448 67.2697 153.222 67.6009 151.629 67.6009ZM164.434 67.6009C163.521 67.6009 162.787 67.4488 162.232 67.1444C161.695 66.8222 161.301 66.3478 161.05 65.7212C160.818 65.0947 160.701 64.316 160.701 63.3851V56.1349H158.634C158.455 56.1349 158.365 56.0454 158.365 55.8664V54.4432C158.365 54.2642 158.455 54.1747 158.634 54.1747H160.755L161.05 50.9524C161.068 50.7734 161.167 50.6839 161.346 50.6839H162.688C162.867 50.6839 162.957 50.7734 162.957 50.9524L162.984 54.1747H166.985C167.164 54.1747 167.253 54.2642 167.253 54.4432V55.8664C167.253 56.0454 167.164 56.1349 166.985 56.1349H162.984V63.3314C162.984 64.1728 163.127 64.7635 163.413 65.1036C163.718 65.4438 164.228 65.6138 164.944 65.6138C165.302 65.6138 165.66 65.578 166.018 65.5064C166.376 65.4169 166.689 65.3095 166.958 65.1842C167.048 65.1484 167.119 65.1484 167.173 65.1842C167.244 65.22 167.28 65.2827 167.28 65.3722V66.849C167.28 66.9923 167.209 67.0907 167.065 67.1444C166.743 67.2697 166.367 67.3771 165.938 67.4667C165.508 67.5562 165.007 67.6009 164.434 67.6009Z" fill="#0F2D4A"/>
<path d="M88.7176 39C88.459 39 88.3297 38.8707 88.3297 38.6121V13.9825C88.3297 13.7239 88.459 13.5946 88.7176 13.5946H95.5053C99.4874 13.5946 102.461 14.5255 104.426 16.3872C106.391 18.2232 107.374 21.0158 107.374 24.7652V26.7046C107.374 30.8418 106.391 33.9318 104.426 35.9746C102.487 37.9915 99.5133 39 95.5053 39H88.7176ZM91.6266 36.2073H95.2726C98.298 36.2073 100.522 35.4575 101.944 33.9577C103.366 32.4579 104.077 30.1178 104.077 26.9373V24.5325C104.077 21.7398 103.366 19.6841 101.944 18.3654C100.522 17.0466 98.298 16.3872 95.2726 16.3872H91.6266V36.2073ZM113.565 39C113.307 39 113.178 38.8707 113.178 38.6121V13.9825C113.178 13.7239 113.307 13.5946 113.565 13.5946H121.051C124.128 13.5946 126.404 14.1764 127.878 15.34C129.378 16.5036 130.127 18.249 130.127 20.5762C130.127 22.438 129.675 23.9895 128.77 25.2307C127.891 26.446 126.637 27.2864 125.008 27.7518V27.7906L131.485 38.5346C131.563 38.6638 131.575 38.7802 131.524 38.8836C131.472 38.9612 131.369 39 131.213 39H128.227C128.02 39 127.865 38.9095 127.761 38.7285L121.439 28.1785H116.474V38.6121C116.474 38.8707 116.345 39 116.087 39H113.565ZM116.474 25.541H120.702C122.874 25.541 124.439 25.166 125.395 24.4161C126.352 23.6663 126.831 22.4639 126.831 20.809C126.831 19.2058 126.378 18.068 125.473 17.3957C124.594 16.7234 123.081 16.3872 120.935 16.3872H116.474V25.541ZM137.826 39.4654C137.051 39.4654 136.495 39.2715 136.158 38.8836C135.822 38.4699 135.654 37.9398 135.654 37.2934V36.9055C135.654 36.2591 135.822 35.7419 136.158 35.354C136.495 34.9403 137.051 34.7334 137.826 34.7334C138.602 34.7334 139.158 34.9403 139.494 35.354C139.83 35.7419 139.998 36.2591 139.998 36.9055V37.2934C139.998 37.9398 139.83 38.4699 139.494 38.8836C139.158 39.2715 138.602 39.4654 137.826 39.4654ZM154.17 39C153.912 39 153.783 38.8707 153.783 38.6121V13.9825C153.783 13.7239 153.912 13.5946 154.17 13.5946H158.67C158.902 13.5946 159.058 13.6851 159.135 13.8661L166.427 28.6827C166.918 29.6394 167.345 30.5057 167.707 31.2814C168.095 32.0571 168.431 32.7812 168.716 33.4535C169.026 34.1258 169.31 34.7852 169.569 35.4316H169.646C169.646 34.8886 169.646 34.3326 169.646 33.7638C169.646 33.169 169.633 32.5743 169.608 31.9796C169.608 31.3848 169.608 30.803 169.608 30.2342C169.608 29.6394 169.608 29.0706 169.608 28.5275V13.9825C169.608 13.7239 169.737 13.5946 169.996 13.5946H172.478C172.736 13.5946 172.866 13.7239 172.866 13.9825V38.6121C172.866 38.8707 172.736 39 172.478 39H168.095C167.862 39 167.707 38.9095 167.63 38.7285L160.454 24.2998C160.04 23.4465 159.639 22.6319 159.252 21.8562C158.864 21.0546 158.489 20.2659 158.127 19.4902C157.765 18.7145 157.416 17.9387 157.079 17.163H157.002C157.002 17.8353 157.002 18.4817 157.002 19.1023C157.002 19.6971 157.002 20.2918 157.002 20.8865C157.028 21.4813 157.041 22.0889 157.041 22.7095C157.041 23.3042 157.041 23.9378 157.041 24.6101V38.6121C157.041 38.8707 156.911 39 156.653 39H154.17ZM179.852 39C179.593 39 179.464 38.8707 179.464 38.6121V13.9825C179.464 13.7239 179.593 13.5946 179.852 13.5946H182.373C182.631 13.5946 182.761 13.7239 182.761 13.9825V38.6121C182.761 38.8707 182.631 39 182.373 39H179.852ZM189.738 39C189.479 39 189.35 38.8707 189.35 38.6121V13.9825C189.35 13.7239 189.479 13.5946 189.738 13.5946H192.259C192.517 13.5946 192.647 13.7239 192.647 13.9825V21.4683C192.647 21.9855 192.647 22.5156 192.647 23.0586C192.647 23.5757 192.647 24.0929 192.647 24.6101C192.647 25.1272 192.634 25.6444 192.608 26.1615H192.647C193.241 25.4892 193.836 24.8299 194.431 24.1834C195.026 23.537 195.62 22.8776 196.215 22.2053L203.779 13.7885C203.882 13.6592 204.037 13.5946 204.244 13.5946H207.541C207.696 13.5946 207.799 13.6463 207.851 13.7497C207.929 13.8273 207.903 13.9307 207.774 14.06L198.659 23.9119L208.472 38.5346C208.549 38.6638 208.562 38.7802 208.511 38.8836C208.485 38.9612 208.394 39 208.239 39H205.02C204.839 39 204.684 38.9095 204.554 38.7285L196.37 26.433L192.647 30.4669V38.6121C192.647 38.8707 192.517 39 192.259 39H189.738ZM220.738 39.4654C217.506 39.4654 215.088 38.6768 213.485 37.0994C211.907 35.4963 211.119 33.2466 211.119 30.3505V22.2441C211.119 19.3221 211.907 17.0725 213.485 15.4951C215.088 13.9178 217.506 13.1291 220.738 13.1291C223.97 13.1291 226.375 13.9178 227.952 15.4951C229.555 17.0725 230.357 19.3221 230.357 22.2441V30.3505C230.357 33.2466 229.555 35.4963 227.952 37.0994C226.375 38.6768 223.97 39.4654 220.738 39.4654ZM220.738 36.5564C222.806 36.5564 224.371 36.0263 225.431 34.9662C226.517 33.906 227.06 32.3545 227.06 30.3117V22.2829C227.06 20.2142 226.517 18.6627 225.431 17.6284C224.371 16.5683 222.806 16.0382 220.738 16.0382C218.695 16.0382 217.131 16.5683 216.045 17.6284C214.959 18.6627 214.416 20.2142 214.416 22.2829V30.3117C214.416 32.3545 214.959 33.906 216.045 34.9662C217.131 36.0263 218.695 36.5564 220.738 36.5564ZM236.858 39C236.599 39 236.47 38.8707 236.47 38.6121V13.9825C236.47 13.7239 236.599 13.5946 236.858 13.5946H239.379C239.637 13.5946 239.767 13.7239 239.767 13.9825V36.0134H250.472C250.731 36.0134 250.86 36.1427 250.86 36.4013V38.6121C250.86 38.8707 250.731 39 250.472 39H236.858ZM252.461 39C252.177 39 252.073 38.8578 252.151 38.5733L260.723 13.9049C260.8 13.698 260.955 13.5946 261.188 13.5946H264.64C264.873 13.5946 265.028 13.698 265.105 13.9049L273.794 38.5733C273.845 38.7026 273.833 38.8061 273.755 38.8836C273.703 38.9612 273.613 39 273.483 39H270.73C270.497 39 270.342 38.8966 270.264 38.6897L264.446 21.2356C264.188 20.4599 263.929 19.6841 263.67 18.9084C263.412 18.1327 263.14 17.3569 262.856 16.5812H262.817C262.558 17.3311 262.3 18.0939 262.041 18.8696C261.783 19.6195 261.524 20.3694 261.266 21.1192L255.525 38.6897C255.448 38.8966 255.292 39 255.06 39H252.461ZM256.766 33.0656L257.581 30.1954H268.131L268.984 33.0656H256.766ZM291.075 39C290.816 39 290.687 38.8707 290.687 38.6121V16.5812H283.705C283.446 16.5812 283.317 16.4519 283.317 16.1933V13.9825C283.317 13.7239 283.446 13.5946 283.705 13.5946H300.965C301.224 13.5946 301.353 13.7239 301.353 13.9825V16.1933C301.353 16.4519 301.224 16.5812 300.965 16.5812H293.984V38.6121C293.984 38.8707 293.854 39 293.596 39H291.075ZM306.401 39C306.143 39 306.014 38.8707 306.014 38.6121V13.9825C306.014 13.7239 306.143 13.5946 306.401 13.5946H320.21C320.468 13.5946 320.597 13.7239 320.597 13.9825V16.1933C320.597 16.4519 320.468 16.5812 320.21 16.5812H309.31V24.6489H319.279C319.537 24.6489 319.667 24.7781 319.667 25.0367V27.1312C319.667 27.3898 319.537 27.5191 319.279 27.5191H309.31V36.0134H320.21C320.468 36.0134 320.597 36.1427 320.597 36.4013V38.6121C320.597 38.8707 320.468 39 320.21 39H306.401ZM334.181 39.4654C332.112 39.4654 330.405 39.1681 329.061 38.5733C327.742 37.9528 326.772 37.0994 326.152 36.0134C325.557 34.9274 325.311 33.6733 325.415 32.2511C325.441 31.7856 325.596 31.5529 325.88 31.5529H328.324C328.634 31.5529 328.789 31.7598 328.789 32.1735C328.789 33.7508 329.255 34.8886 330.186 35.5868C331.117 36.2591 332.539 36.5952 334.452 36.5952C336.288 36.5952 337.672 36.272 338.602 35.6255C339.559 34.9532 340.038 33.9448 340.038 32.6002C340.038 31.9279 339.921 31.359 339.688 30.8935C339.482 30.4022 339.12 29.9756 338.602 29.6136C338.085 29.2516 337.387 28.8896 336.508 28.5275L330.806 26.1615C329.617 25.6702 328.647 25.1272 327.897 24.5325C327.173 23.9119 326.643 23.2137 326.307 22.438C325.997 21.6364 325.842 20.7314 325.842 19.7229C325.867 17.5767 326.578 15.9477 327.975 14.8358C329.397 13.7239 331.453 13.1679 334.142 13.1679C335.978 13.1679 337.568 13.4394 338.913 13.9825C340.257 14.5255 341.279 15.3141 341.977 16.3485C342.675 17.3828 342.959 18.6498 342.83 20.1496C342.778 20.6409 342.636 20.8865 342.404 20.8865H339.921C339.792 20.8865 339.688 20.8348 339.611 20.7314C339.559 20.6279 339.546 20.434 339.572 20.1496C339.675 18.8308 339.223 17.8224 338.215 17.1242C337.232 16.4002 335.836 16.0382 334.026 16.0382C332.422 16.0382 331.207 16.3226 330.38 16.8915C329.578 17.4603 329.164 18.3395 329.138 19.529C329.138 20.1496 329.242 20.6926 329.449 21.158C329.681 21.6235 330.056 22.0501 330.574 22.438C331.117 22.8259 331.853 23.2137 332.784 23.6016L338.408 25.9676C339.598 26.4589 340.555 27.0019 341.279 27.5967C342.003 28.1914 342.52 28.8896 342.83 29.6911C343.166 30.4669 343.334 31.4107 343.334 32.5226C343.334 34.6947 342.597 36.4013 341.124 37.6425C339.65 38.8578 337.335 39.4654 334.181 39.4654ZM349.128 39C348.869 39 348.74 38.8707 348.74 38.6121V13.9825C348.74 13.7239 348.869 13.5946 349.128 13.5946H351.649C351.907 13.5946 352.037 13.7239 352.037 13.9825V36.0134H362.742C363 36.0134 363.13 36.1427 363.13 36.4013V38.6121C363.13 38.8707 363 39 362.742 39H349.128ZM364.731 39C364.446 39 364.343 38.8578 364.421 38.5733L372.992 13.9049C373.07 13.698 373.225 13.5946 373.458 13.5946H376.91C377.143 13.5946 377.298 13.698 377.375 13.9049L386.064 38.5733C386.115 38.7026 386.102 38.8061 386.025 38.8836C385.973 38.9612 385.883 39 385.753 39H382.999C382.767 39 382.612 38.8966 382.534 38.6897L376.716 21.2356C376.457 20.4599 376.199 19.6841 375.94 18.9084C375.682 18.1327 375.41 17.3569 375.126 16.5812H375.087C374.828 17.3311 374.57 18.0939 374.311 18.8696C374.053 19.6195 373.794 20.3694 373.535 21.1192L367.795 38.6897C367.717 38.8966 367.562 39 367.33 39H364.731ZM369.036 33.0656L369.851 30.1954H380.401L381.254 33.0656H369.036Z" fill="#0F2D4A"/>
<path d="M41.8133 77.0905C41.9101 78.015 41.9679 79.2147 42.1765 80.3861C42.4288 81.8034 43.2176 81.9287 44.1351 80.9793C45.0023 80.0817 45.8109 79.1137 46.579 78.1219C54.2612 68.1913 59.3994 56.7585 64.1881 45.1837C66.8453 38.7609 67.8549 39.7488 60.7924 36.726C50.4431 32.2971 39.5963 31.8458 28.6255 33.3987C22.7882 34.2242 17.2041 35.9107 12.0415 38.9692C10.7805 39.7157 10.2755 40.4382 10.8848 41.9989C12.8359 46.9967 14.4802 52.131 16.5868 57.0541C18.3974 61.2859 20.6431 65.3211 22.791 69.39C23.1302 70.034 23.9669 70.394 24.5734 70.8858C25.0155 70.254 25.5906 69.6822 25.8771 68.9826C27.6018 64.7771 29.1766 60.5039 30.9839 56.3374C31.6496 54.8041 32.616 53.2897 33.783 52.1344C37.3023 48.6515 41.0175 49.7219 42.1135 54.6616C42.7365 57.4678 42.8619 60.4585 42.782 63.3525C42.6585 67.8449 42.169 72.326 41.8133 77.0905ZM3.30408 42.5429C4.66416 40.5802 5.89927 38.5038 7.43082 36.6982C8.37278 35.5883 8.55647 34.6159 8.23888 33.2743C6.76276 27.0349 6.3141 20.6896 6.6735 14.2868C7.0935 6.80578 12.1674 3.17113 19.0918 5.40607C20.9475 6.00469 22.7858 6.7326 24.5279 7.62247C28.3831 9.5925 32.4112 10.437 36.6929 10.1979C37.3511 10.1609 38.0342 10.6141 38.7056 10.84C38.2546 11.4454 37.9158 12.3865 37.3323 12.5973C34.7606 13.5272 32.1312 14.297 29.4956 15.0167C28.4587 15.3001 27.3265 15.2035 26.2831 15.4699C25.6347 15.6353 25.0705 16.1573 24.4687 16.5193C25.0484 16.8291 25.6399 17.4258 26.2074 17.4019C29.2217 17.2736 32.2472 17.1272 35.237 16.7291C39.9848 16.0963 43.9481 13.7365 47.3823 10.3233C49.0516 8.66457 50.7739 7.05898 52.5361 5.50804C57.1002 1.49188 63.5567 2.13636 67.3936 6.88432C71.0031 11.3513 71.3479 16.5881 70.631 21.9913C70.1692 25.4717 69.4142 28.9215 68.6 32.3356C68.235 33.8646 68.3398 34.8545 69.4649 36.0873C71.2549 38.0476 72.6803 40.365 74.2612 42.5316C57.9787 22.7367 18.4825 23.5476 3.30408 42.5429Z" fill="#0F2D4A"/>
</svg>
