<svg width="426" height="91" viewBox="0 0 426 91" fill="none" xmlns="http://www.w3.org/2000/svg">
<path d="M90.645 67.601C89.3919 67.601 88.4252 67.1803 87.7449 66.339C87.0826 65.4976 86.7514 64.2534 86.7514 62.6065V59.2499C86.7514 57.5493 87.181 56.2245 88.0403 55.2758C88.8996 54.327 90.0901 53.8526 91.6117 53.8526C92.3099 53.8526 93.0438 53.951 93.8136 54.148C94.5834 54.327 95.1652 54.5597 95.559 54.8461L95.6933 56.8063C95.1204 56.502 94.4939 56.2693 93.8136 56.1082C93.1333 55.9471 92.5336 55.8665 92.0145 55.8665C91.012 55.8665 90.2601 56.1708 89.7589 56.7795C89.2755 57.3882 89.0339 58.3011 89.0339 59.5184V62.7407C89.0339 63.6895 89.2129 64.4056 89.5709 64.8889C89.9468 65.3544 90.5018 65.5871 91.2358 65.5871C91.6833 65.5871 92.1219 65.5065 92.5515 65.3454C92.9812 65.1664 93.4556 64.88 93.9747 64.4862C94.4939 64.0744 95.1025 63.5195 95.8007 62.8213L95.747 64.9158C95.1383 65.5244 94.5565 66.0346 94.0016 66.4464C93.4645 66.8402 92.9185 67.1266 92.3636 67.3057C91.8265 67.5026 91.2537 67.601 90.645 67.601ZM95.9349 67.2788C95.8454 67.2788 95.7738 67.2609 95.7201 67.2251C95.6664 67.1714 95.6306 67.0908 95.6127 66.9834C95.5769 66.7149 95.5321 66.3748 95.4784 65.963C95.4247 65.5513 95.4068 65.2112 95.4247 64.9426L95.2905 63.7343V49.2071C95.2905 49.0281 95.38 48.9386 95.559 48.9386H97.3044C97.4834 48.9386 97.5729 49.0281 97.5729 49.2071V64.2445C97.5729 64.4951 97.5819 64.7994 97.5998 65.1575C97.6177 65.4976 97.6356 65.8288 97.6535 66.151C97.6893 66.4732 97.7251 66.7239 97.7609 66.9029C97.8146 67.1535 97.7251 67.2788 97.4924 67.2788H95.9349ZM106.621 67.601C104.903 67.601 103.578 67.1983 102.647 66.3927C101.734 65.5871 101.278 64.3966 101.278 62.8213V59.062C101.278 57.3613 101.734 56.0724 102.647 55.1952C103.56 54.3001 104.885 53.8526 106.621 53.8526C108.358 53.8526 109.674 54.2912 110.569 55.1683C111.482 56.0276 111.938 57.2807 111.938 58.9277V61.0222C111.938 61.2012 111.849 61.2907 111.67 61.2907H103.56V62.15C103.56 63.3494 103.811 64.2266 104.312 64.7815C104.813 65.3186 105.628 65.5871 106.756 65.5871C107.597 65.5871 108.241 65.4528 108.689 65.1843C109.154 64.8979 109.387 64.4862 109.387 63.9491C109.387 63.7522 109.486 63.6537 109.683 63.6537H111.428C111.571 63.6537 111.661 63.7343 111.696 63.8954C111.768 65.0411 111.347 65.9451 110.434 66.6075C109.521 67.2699 108.25 67.601 106.621 67.601ZM103.56 59.3305H109.656V59.1694C109.656 58.0416 109.405 57.2091 108.904 56.6721C108.403 56.135 107.651 55.8665 106.648 55.8665C105.61 55.8665 104.831 56.144 104.312 56.6989C103.811 57.2539 103.56 58.0863 103.56 59.1962V59.3305ZM124.439 67.2788C124.26 67.2788 124.171 67.1893 124.171 67.0103V58.4443C124.171 57.5493 123.983 56.8959 123.607 56.4841C123.249 56.0724 122.703 55.8665 121.969 55.8665C121.271 55.8665 120.582 56.0724 119.901 56.4841C119.221 56.8959 118.371 57.603 117.35 58.6055L117.377 56.5378C117.986 55.8934 118.559 55.3742 119.096 54.9804C119.651 54.5865 120.197 54.3001 120.734 54.1211C121.289 53.9421 121.871 53.8526 122.479 53.8526C123.768 53.8526 124.753 54.2285 125.433 54.9804C126.113 55.7323 126.453 56.8511 126.453 58.3369V67.0103C126.453 67.1893 126.364 67.2788 126.185 67.2788H124.439ZM115.82 67.2788C115.641 67.2788 115.551 67.1893 115.551 67.0103V57.4508C115.551 56.9854 115.524 56.4662 115.471 55.8934C115.435 55.3026 115.399 54.8461 115.363 54.5239C115.328 54.2912 115.417 54.1748 115.632 54.1748H117.27C117.359 54.1748 117.422 54.1927 117.458 54.2285C117.512 54.2643 117.547 54.3359 117.565 54.4433C117.601 54.5865 117.637 54.8103 117.673 55.1146C117.708 55.419 117.744 55.7412 117.78 56.0813C117.816 56.4036 117.834 56.681 117.834 56.9138V57.6119V67.0103C117.834 67.1893 117.744 67.2788 117.565 67.2788H115.82ZM135.326 67.601C134.413 67.601 133.679 67.4489 133.124 67.1445C132.587 66.8223 132.193 66.3479 131.943 65.7214C131.71 65.0948 131.594 64.3161 131.594 63.3852V56.135H129.526C129.347 56.135 129.258 56.0455 129.258 55.8665V54.4433C129.258 54.2643 129.347 54.1748 129.526 54.1748H131.647L131.943 50.9525C131.961 50.7735 132.059 50.684 132.238 50.684H133.581C133.76 50.684 133.849 50.7735 133.849 50.9525L133.876 54.1748H137.877C138.056 54.1748 138.146 54.2643 138.146 54.4433V55.8665C138.146 56.0455 138.056 56.135 137.877 56.135H133.876V63.3315C133.876 64.1729 134.019 64.7636 134.306 65.1038C134.61 65.4439 135.12 65.614 135.836 65.614C136.194 65.614 136.552 65.5782 136.911 65.5065C137.269 65.417 137.582 65.3096 137.85 65.1843C137.94 65.1485 138.011 65.1485 138.065 65.1843C138.137 65.2201 138.173 65.2828 138.173 65.3723V66.8492C138.173 66.9924 138.101 67.0908 137.958 67.1445C137.636 67.2699 137.26 67.3773 136.83 67.4668C136.4 67.5563 135.899 67.601 135.326 67.601ZM141.335 67.2788C141.156 67.2788 141.066 67.1893 141.066 67.0103V54.4433C141.066 54.2643 141.156 54.1748 141.335 54.1748H143.08C143.259 54.1748 143.349 54.2643 143.349 54.4433V67.0103C143.349 67.1893 143.259 67.2788 143.08 67.2788H141.335ZM142.221 51.9729C141.702 51.9729 141.326 51.8386 141.093 51.5701C140.86 51.2837 140.744 50.9257 140.744 50.496V50.2275C140.744 49.7979 140.86 49.4488 141.093 49.1803C141.326 48.8938 141.702 48.7506 142.221 48.7506C142.74 48.7506 143.116 48.8938 143.349 49.1803C143.582 49.4488 143.698 49.7979 143.698 50.2275V50.496C143.698 50.9257 143.582 51.2837 143.349 51.5701C143.116 51.8386 142.74 51.9729 142.221 51.9729ZM151.629 67.601C150.018 67.601 148.809 67.252 148.004 66.5538C147.198 65.8377 146.795 64.7726 146.795 63.3583C146.795 63.1972 146.885 63.1167 147.064 63.1167H148.836C148.997 63.1167 149.078 63.1883 149.078 63.3315C149.078 64.1371 149.275 64.7189 149.669 65.0769C150.08 65.4349 150.743 65.614 151.656 65.614C152.533 65.614 153.195 65.4707 153.643 65.1843C154.09 64.88 154.314 64.4503 154.314 63.8954C154.314 63.4837 154.189 63.1435 153.938 62.875C153.688 62.5886 153.294 62.329 152.757 62.0963L149.695 60.8342C148.711 60.4225 148.013 59.957 147.601 59.4379C147.189 58.9187 146.983 58.2474 146.983 57.424C146.983 56.2424 147.359 55.3563 148.111 54.7656C148.863 54.1569 149.982 53.8526 151.468 53.8526C152.989 53.8526 154.171 54.1748 155.012 54.8193C155.854 55.4458 156.274 56.3409 156.274 57.5045C156.274 57.6656 156.185 57.7462 156.006 57.7462H154.234C154.162 57.7462 154.099 57.7193 154.046 57.6656C153.992 57.594 153.965 57.4777 153.965 57.3165C153.965 56.8511 153.75 56.4931 153.321 56.2424C152.891 55.9739 152.3 55.8397 151.548 55.8397C150.778 55.8397 150.206 55.9739 149.83 56.2424C149.454 56.4931 149.266 56.8869 149.266 57.424C149.266 57.8178 149.364 58.1132 149.561 58.3101C149.776 58.507 150.197 58.7397 150.823 59.0083L153.884 60.2972C154.833 60.691 155.522 61.1564 155.952 61.6935C156.382 62.2305 156.597 62.9198 156.597 63.7611C156.597 64.9963 156.167 65.9451 155.308 66.6075C154.448 67.2699 153.222 67.601 151.629 67.601ZM164.434 67.601C163.521 67.601 162.787 67.4489 162.232 67.1445C161.695 66.8223 161.301 66.3479 161.05 65.7214C160.818 65.0948 160.701 64.3161 160.701 63.3852V56.135H158.634C158.455 56.135 158.365 56.0455 158.365 55.8665V54.4433C158.365 54.2643 158.455 54.1748 158.634 54.1748H160.755L161.05 50.9525C161.068 50.7735 161.167 50.684 161.346 50.684H162.688C162.867 50.684 162.957 50.7735 162.957 50.9525L162.984 54.1748H166.985C167.164 54.1748 167.253 54.2643 167.253 54.4433V55.8665C167.253 56.0455 167.164 56.135 166.985 56.135H162.984V63.3315C162.984 64.1729 163.127 64.7636 163.413 65.1038C163.718 65.4439 164.228 65.614 164.944 65.614C165.302 65.614 165.66 65.5782 166.018 65.5065C166.376 65.417 166.689 65.3096 166.958 65.1843C167.048 65.1485 167.119 65.1485 167.173 65.1843C167.244 65.2201 167.28 65.2828 167.28 65.3723V66.8492C167.28 66.9924 167.209 67.0908 167.065 67.1445C166.743 67.2699 166.367 67.3773 165.938 67.4668C165.508 67.5563 165.007 67.601 164.434 67.601Z" fill="#46B1DE"/>
<g filter="url(#filter0_d_121_154)">
<path d="M88.61 38C88.3567 38 88.23 37.8733 88.23 37.62V13.49C88.23 13.2367 88.3567 13.11 88.61 13.11H95.26C99.1613 13.11 102.075 14.022 104 15.846C105.925 17.6447 106.888 20.3807 106.888 24.054V25.954C106.888 30.0073 105.925 33.0347 104 35.036C102.1 37.012 99.1867 38 95.26 38H88.61ZM91.46 35.264H95.032C97.996 35.264 100.175 34.5293 101.568 33.06C102.961 31.5907 103.658 29.298 103.658 26.182V23.826C103.658 21.09 102.961 19.076 101.568 17.784C100.175 16.492 97.996 15.846 95.032 15.846H91.46V35.264ZM112.954 38C112.7 38 112.574 37.8733 112.574 37.62V13.49C112.574 13.2367 112.7 13.11 112.954 13.11H120.288C123.302 13.11 125.532 13.68 126.976 14.82C128.445 15.96 129.18 17.67 129.18 19.95C129.18 21.774 128.736 23.294 127.85 24.51C126.988 25.7007 125.76 26.524 124.164 26.98V27.018L130.51 37.544C130.586 37.6707 130.598 37.7847 130.548 37.886C130.497 37.962 130.396 38 130.244 38H127.318C127.115 38 126.963 37.9113 126.862 37.734L120.668 27.398H115.804V37.62C115.804 37.8733 115.677 38 115.424 38H112.954ZM115.804 24.814H119.946C122.074 24.814 123.606 24.4467 124.544 23.712C125.481 22.9773 125.95 21.7993 125.95 20.178C125.95 18.6073 125.506 17.4927 124.62 16.834C123.758 16.1753 122.276 15.846 120.174 15.846H115.804V24.814ZM136.722 38.456C135.962 38.456 135.418 38.266 135.088 37.886C134.759 37.4807 134.594 36.9613 134.594 36.328V35.948C134.594 35.3147 134.759 34.808 135.088 34.428C135.418 34.0227 135.962 33.82 136.722 33.82C137.482 33.82 138.027 34.0227 138.356 34.428C138.686 34.808 138.85 35.3147 138.85 35.948V36.328C138.85 36.9613 138.686 37.4807 138.356 37.886C138.027 38.266 137.482 38.456 136.722 38.456ZM152.735 38C152.482 38 152.355 37.8733 152.355 37.62V13.49C152.355 13.2367 152.482 13.11 152.735 13.11H157.143C157.371 13.11 157.523 13.1987 157.599 13.376L164.743 27.892C165.224 28.8293 165.642 29.678 165.997 30.438C166.377 31.198 166.706 31.9073 166.985 32.566C167.289 33.2247 167.568 33.8707 167.821 34.504H167.897C167.897 33.972 167.897 33.4273 167.897 32.87C167.897 32.2873 167.884 31.7047 167.859 31.122C167.859 30.5393 167.859 29.9693 167.859 29.412C167.859 28.8293 167.859 28.272 167.859 27.74V13.49C167.859 13.2367 167.986 13.11 168.239 13.11H170.671C170.924 13.11 171.051 13.2367 171.051 13.49V37.62C171.051 37.8733 170.924 38 170.671 38H166.377C166.149 38 165.997 37.9113 165.921 37.734L158.891 23.598C158.486 22.762 158.093 21.964 157.713 21.204C157.333 20.4187 156.966 19.646 156.611 18.886C156.256 18.126 155.914 17.366 155.585 16.606H155.509C155.509 17.2647 155.509 17.898 155.509 18.506C155.509 19.0887 155.509 19.6713 155.509 20.254C155.534 20.8367 155.547 21.432 155.547 22.04C155.547 22.6227 155.547 23.2433 155.547 23.902V37.62C155.547 37.8733 155.42 38 155.167 38H152.735ZM177.895 38C177.642 38 177.515 37.8733 177.515 37.62V13.49C177.515 13.2367 177.642 13.11 177.895 13.11H180.365C180.618 13.11 180.745 13.2367 180.745 13.49V37.62C180.745 37.8733 180.618 38 180.365 38H177.895ZM187.581 38C187.327 38 187.201 37.8733 187.201 37.62V13.49C187.201 13.2367 187.327 13.11 187.581 13.11H190.051C190.304 13.11 190.431 13.2367 190.431 13.49V20.824C190.431 21.3307 190.431 21.85 190.431 22.382C190.431 22.8887 190.431 23.3953 190.431 23.902C190.431 24.4087 190.418 24.9153 190.393 25.422H190.431C191.013 24.7633 191.596 24.1173 192.179 23.484C192.761 22.8507 193.344 22.2047 193.927 21.546L201.337 13.3C201.438 13.1733 201.59 13.11 201.793 13.11H205.023C205.175 13.11 205.276 13.1607 205.327 13.262C205.403 13.338 205.377 13.4393 205.251 13.566L196.321 23.218L205.935 37.544C206.011 37.6707 206.023 37.7847 205.973 37.886C205.947 37.962 205.859 38 205.707 38H202.553C202.375 38 202.223 37.9113 202.097 37.734L194.079 25.688L190.431 29.64V37.62C190.431 37.8733 190.304 38 190.051 38H187.581ZM217.952 38.456C214.785 38.456 212.417 37.6833 210.846 36.138C209.301 34.5673 208.528 32.3633 208.528 29.526V21.584C208.528 18.7213 209.301 16.5173 210.846 14.972C212.417 13.4267 214.785 12.654 217.952 12.654C221.119 12.654 223.475 13.4267 225.02 14.972C226.591 16.5173 227.376 18.7213 227.376 21.584V29.526C227.376 32.3633 226.591 34.5673 225.02 36.138C223.475 37.6833 221.119 38.456 217.952 38.456ZM217.952 35.606C219.979 35.606 221.511 35.0867 222.55 34.048C223.614 33.0093 224.146 31.4893 224.146 29.488V21.622C224.146 19.5953 223.614 18.0753 222.55 17.062C221.511 16.0233 219.979 15.504 217.952 15.504C215.951 15.504 214.418 16.0233 213.354 17.062C212.29 18.0753 211.758 19.5953 211.758 21.622V29.488C211.758 31.4893 212.29 33.0093 213.354 34.048C214.418 35.0867 215.951 35.606 217.952 35.606ZM233.745 38C233.491 38 233.365 37.8733 233.365 37.62V13.49C233.365 13.2367 233.491 13.11 233.745 13.11H236.215C236.468 13.11 236.595 13.2367 236.595 13.49V35.074H247.083C247.336 35.074 247.463 35.2007 247.463 35.454V37.62C247.463 37.8733 247.336 38 247.083 38H233.745ZM249.031 38C248.753 38 248.651 37.8607 248.727 37.582L257.125 13.414C257.201 13.2113 257.353 13.11 257.581 13.11H260.963C261.191 13.11 261.343 13.2113 261.419 13.414L269.931 37.582C269.982 37.7087 269.969 37.81 269.893 37.886C269.843 37.962 269.754 38 269.627 38H266.929C266.701 38 266.549 37.8987 266.473 37.696L260.773 20.596C260.52 19.836 260.267 19.076 260.013 18.316C259.76 17.556 259.494 16.796 259.215 16.036H259.177C258.924 16.7707 258.671 17.518 258.417 18.278C258.164 19.0127 257.911 19.7473 257.657 20.482L252.033 37.696C251.957 37.8987 251.805 38 251.577 38H249.031ZM253.249 32.186L254.047 29.374H264.383L265.219 32.186H253.249ZM286.862 38C286.608 38 286.482 37.8733 286.482 37.62V16.036H279.642C279.388 16.036 279.262 15.9093 279.262 15.656V13.49C279.262 13.2367 279.388 13.11 279.642 13.11H296.552C296.805 13.11 296.932 13.2367 296.932 13.49V15.656C296.932 15.9093 296.805 16.036 296.552 16.036H289.712V37.62C289.712 37.8733 289.585 38 289.332 38H286.862ZM301.878 38C301.624 38 301.498 37.8733 301.498 37.62V13.49C301.498 13.2367 301.624 13.11 301.878 13.11H315.406C315.659 13.11 315.786 13.2367 315.786 13.49V15.656C315.786 15.9093 315.659 16.036 315.406 16.036H304.728V23.94H314.494C314.747 23.94 314.874 24.0667 314.874 24.32V26.372C314.874 26.6253 314.747 26.752 314.494 26.752H304.728V35.074H315.406C315.659 35.074 315.786 35.2007 315.786 35.454V37.62C315.786 37.8733 315.659 38 315.406 38H301.878ZM329.093 38.456C327.067 38.456 325.395 38.1647 324.077 37.582C322.785 36.974 321.835 36.138 321.227 35.074C320.645 34.01 320.404 32.7813 320.505 31.388C320.531 30.932 320.683 30.704 320.961 30.704H323.355C323.659 30.704 323.811 30.9067 323.811 31.312C323.811 32.8573 324.267 33.972 325.179 34.656C326.091 35.3147 327.485 35.644 329.359 35.644C331.158 35.644 332.513 35.3273 333.425 34.694C334.363 34.0353 334.831 33.0473 334.831 31.73C334.831 31.0713 334.717 30.514 334.489 30.058C334.287 29.5767 333.932 29.1587 333.425 28.804C332.919 28.4493 332.235 28.0947 331.373 27.74L325.787 25.422C324.622 24.9407 323.672 24.4087 322.937 23.826C322.228 23.218 321.709 22.534 321.379 21.774C321.075 20.9887 320.923 20.102 320.923 19.114C320.949 17.0113 321.645 15.4153 323.013 14.326C324.407 13.2367 326.421 12.692 329.055 12.692C330.854 12.692 332.412 12.958 333.729 13.49C335.047 14.022 336.047 14.7947 336.731 15.808C337.415 16.8213 337.694 18.0627 337.567 19.532C337.517 20.0133 337.377 20.254 337.149 20.254H334.717C334.591 20.254 334.489 20.2033 334.413 20.102C334.363 20.0007 334.35 19.8107 334.375 19.532C334.477 18.24 334.033 17.252 333.045 16.568C332.083 15.8587 330.715 15.504 328.941 15.504C327.371 15.504 326.18 15.7827 325.369 16.34C324.584 16.8973 324.179 17.7587 324.153 18.924C324.153 19.532 324.255 20.064 324.457 20.52C324.685 20.976 325.053 21.394 325.559 21.774C326.091 22.154 326.813 22.534 327.725 22.914L333.235 25.232C334.401 25.7133 335.338 26.2453 336.047 26.828C336.757 27.4107 337.263 28.0947 337.567 28.88C337.897 29.64 338.061 30.5647 338.061 31.654C338.061 33.782 337.339 35.454 335.895 36.67C334.451 37.8607 332.184 38.456 329.093 38.456ZM343.737 38C343.484 38 343.357 37.8733 343.357 37.62V13.49C343.357 13.2367 343.484 13.11 343.737 13.11H346.207C346.46 13.11 346.587 13.2367 346.587 13.49V35.074H357.075C357.328 35.074 357.455 35.2007 357.455 35.454V37.62C357.455 37.8733 357.328 38 357.075 38H343.737ZM359.024 38C358.745 38 358.644 37.8607 358.72 37.582L367.118 13.414C367.194 13.2113 367.346 13.11 367.574 13.11H370.956C371.184 13.11 371.336 13.2113 371.412 13.414L379.924 37.582C379.974 37.7087 379.962 37.81 379.886 37.886C379.835 37.962 379.746 38 379.62 38H376.922C376.694 38 376.542 37.8987 376.466 37.696L370.766 20.596C370.512 19.836 370.259 19.076 370.006 18.316C369.752 17.556 369.486 16.796 369.208 16.036H369.17C368.916 16.7707 368.663 17.518 368.41 18.278C368.156 19.0127 367.903 19.7473 367.65 20.482L362.026 37.696C361.95 37.8987 361.798 38 361.57 38H359.024ZM363.242 32.186L364.04 29.374H374.376L375.212 32.186H363.242Z" fill="#46B1DE"/>
</g>
<path d="M41.8133 77.0904C41.9101 78.0149 41.9679 79.2146 42.1765 80.386C42.4288 81.8033 43.2176 81.9287 44.1351 80.9793C45.0023 80.0816 45.8109 79.1136 46.579 78.1218C54.2612 68.1912 59.3994 56.7584 64.1881 45.1836C66.8453 38.7608 67.8549 39.7487 60.7924 36.7259C50.4431 32.297 39.5963 31.8457 28.6255 33.3986C22.7882 34.2241 17.2041 35.9106 12.0415 38.9691C10.7805 39.7156 10.2755 40.4381 10.8848 41.9988C12.8359 46.9966 14.4802 52.1309 16.5868 57.054C18.3974 61.2858 20.6431 65.321 22.791 69.3899C23.1302 70.0339 23.9669 70.3939 24.5734 70.8857C25.0155 70.2539 25.5906 69.6821 25.8771 68.9825C27.6018 64.777 29.1766 60.5038 30.9839 56.3373C31.6496 54.804 32.616 53.2896 33.783 52.1343C37.3023 48.6514 41.0175 49.7218 42.1135 54.6615C42.7365 57.4677 42.8619 60.4584 42.782 63.3525C42.6585 67.8448 42.169 72.3259 41.8133 77.0904ZM3.30408 42.5428C4.66416 40.5801 5.89927 38.5037 7.43082 36.6981C8.37278 35.5882 8.55647 34.6158 8.23888 33.2742C6.76276 27.0348 6.3141 20.6895 6.6735 14.2867C7.0935 6.80569 12.1674 3.17104 19.0918 5.40598C20.9475 6.0046 22.7858 6.7325 24.5279 7.62238C28.3831 9.59241 32.4112 10.4369 36.6929 10.1979C37.3511 10.1608 38.0342 10.614 38.7056 10.8399C38.2546 11.4453 37.9158 12.3864 37.3323 12.5972C34.7606 13.5271 32.1312 14.297 29.4956 15.0166C28.4587 15.3 27.3265 15.2034 26.2831 15.4698C25.6347 15.6352 25.0705 16.1572 24.4687 16.5192C25.0484 16.829 25.6399 17.4257 26.2074 17.4018C29.2217 17.2735 32.2472 17.1271 35.237 16.729C39.9848 16.0962 43.9481 13.7364 47.3823 10.3232C49.0516 8.66448 50.7739 7.05889 52.5361 5.50795C57.1002 1.49179 63.5567 2.13627 67.3936 6.88423C71.0031 11.3512 71.3479 16.588 70.631 21.9912C70.1692 25.4717 69.4142 28.9214 68.6 32.3355C68.235 33.8645 68.3398 34.8544 69.4649 36.0873C71.2549 38.0475 72.6803 40.3649 74.2612 42.5316C57.9787 22.7366 18.4825 23.5475 3.30408 42.5428Z" fill="#46B1DE"/>
<defs>
<filter id="filter0_d_121_154" x="84.23" y="12.6541" width="299.77" height="33.802" filterUnits="userSpaceOnUse" color-interpolation-filters="sRGB">
<feFlood flood-opacity="0" result="BackgroundImageFix"/>
<feColorMatrix in="SourceAlpha" type="matrix" values="0 0 0 0 0 0 0 0 0 0 0 0 0 0 0 0 0 0 127 0" result="hardAlpha"/>
<feOffset dy="4"/>
<feGaussianBlur stdDeviation="2"/>
<feComposite in2="hardAlpha" operator="out"/>
<feColorMatrix type="matrix" values="0 0 0 0 0 0 0 0 0 0 0 0 0 0 0 0 0 0 0.25 0"/>
<feBlend mode="normal" in2="BackgroundImageFix" result="effect1_dropShadow_121_154"/>
<feBlend mode="normal" in="SourceGraphic" in2="effect1_dropShadow_121_154" result="shape"/>
</filter>
</defs>
</svg>
